PathFileType	4	(X/Y/Z)	C:/Users/beibeiliu/ov580/test_trc/User1\sequence.20_training_dense_right.trc
DataRate	CameraRate	NumFrames	NumMarkers	Units	OrigDataRate	OrigDataStartFrame	OrigNumFrames
120	120	18	19	mm	120	33	263
Frame#	Time	ThumbCMC			ThumbMCP			ThumbIP			ThumbTip			IndexMCP			IndexPIP			IndexTip			MiddleMCP			MiddlePIP			MiddleTip			RingMCP			RingPIP			RingTip			PinkyMCP			PinkyPIP			PinkyTip			BackHand1			BackHand2			BackHand3	
		X0	Y0	Z0	X1	Y1	Z1	X2	Y2	Z2	X3	Y3	Z3	X4	Y4	Z4	X5	Y5	Z5	X6	Y6	Z6	X7	Y7	Z7	X8	Y8	Z8	X9	Y9	Z9	X10	Y10	Z10	X11	Y11	Z11	X12	Y12	Z12	X13	Y13	Z13	X14	Y14	Z14	X15	Y15	Z15	X16	Y16	Z16	X17	Y17	Z17	X18	Y18	Z18	
32	0.266667	142.141	17.1741	80.3002	123.256	-4.40319	52.893	108.918	-13.983	32.1865	103.066	-27.1966	10.9204	151.797	57.5859	5.28344	146.945	58.7088	-30.0326	145.749	43.1473	-51.619	174.082	60.2248	-6.36607	165.326	57.0585	-42.1556	160.551	29.1546	-64.8627	193.454	50.5182	-7.7757	185.351	48.6853	-39.2951	178.685	27.204	-61.7488	210.799	30.6896	2.74151	207.616	30.7668	-21.65	191.632	29.4909	-46.1644	206.869	42.6043	48.4025	214.436	36.4143	78.4789	176.498	47.3973	67.2527	
33	0.275	143.413	16.854	78.3285	124.075	-5.01432	58.3182	110.42	-15.6802	36.028	100.789	-28.2053	12.0201	148.741	58.5173	1.03655	149.285	58.2357	-28.1904	149.299	40.5035	-53.1114	177.133	57.4484	-7.34045	167.693	55.5753	-42.5509	159.279	29.8832	-64.1192	194.521	49.5458	-11.6718	187.965	46.5304	-41.0013	182.147	26.7433	-60.3018	210.981	30.1304	-0.263075	206.7	30.1729	-21.998	194.707	29.5649	-48.6591	205.481	43.3973	48.4043	211.031	37.7686	77.4558	172.766	45.3562	71.0612	
34	0.283333	144.055	17.1737	76.0459	122.139	-4.63953	55.6514	113.748	-14.3574	36.272	100.75	-28.9699	12.8355	154.061	54.9698	2.04303	148.366	57.1518	-31.5564	148.447	41.0833	-53.3115	171.854	59.3436	-10.424	168.063	54.6898	-41.6716	159.982	25.1457	-65.1633	192.681	48.4005	-9.08978	188.552	45.3899	-38.8282	176.913	24.1488	-62.3642	210.401	28.4221	0.296102	206.211	27.7833	-22.6392	192.694	28.1291	-44.8695	206.761	39.0769	48.7918	211.384	35.1648	80.5193	173.466	45.4834	67.7627	
35	0.291667	145.404	16.84	79.9989	122.236	-4.22135	54.792	109.621	-15.4192	36.1188	105.716	-27.6712	13.9764	150.081	57.2692	0.404021	153.155	54.9461	-27.5492	147.384	41.4299	-52.9719	174.324	59.0164	-11.6015	168.984	53.0176	-43.5615	163.64	25.1216	-65.0814	196.208	46.7091	-8.29255	185.11	44.113	-41.4447	179.868	21.8187	-63.3038	209.351	28.9582	-1.20047	205.101	27.6882	-18.8512	193.271	25.7309	-44.6557	203.505	42.0157	49.3505	212.411	35.5704	82.6914	176.614	45.9523	68.6608	
36	0.3	144.199	18.228	77.0593	125.211	-3.91754	58.5211	109.029	-14.043	32.4951	103.699	-27.9633	14.04	154.583	55.5543	1.65451	150.926	56.7323	-27.938	151.354	39.847	-52.2601	171.946	58.6565	-10.2595	169.749	52.9024	-41.6156	159.051	25.3351	-66.1403	194.694	46.6436	-7.49713	186.857	42.5469	-41.8509	178.526	22.1578	-61.692	213.307	26.9155	2.19312	206.074	27.3284	-25.2465	194.535	28.516	-41.8273	203.76	39.58	48.7484	210.227	38.0219	78.2295	176.315	45.0863	71.5733	
37	0.308333	146.701	18.0234	80.4666	123.091	-2.58425	59.8883	107.564	-12.6839	33.2825	102.934	-26.2601	13.5589	154.199	54.8653	2.81293	155.157	56.4308	-27.5101	147.532	42.6501	-54.1909	175.863	58.9909	-10.27	172.928	52.8693	-43.2364	163.369	25.1292	-65.9215	196.17	47.853	-7.53839	187.381	43.5451	-42.3479	178.175	25.9005	-60.5907	213.937	27.1137	-0.553586	206.787	27.5091	-24.7084	193.328	27.971	-45.7264	206.377	41.202	49.4933	214.767	38.5559	77.1776	175.795	47.2508	66.2002	
38	0.316667	145.96	20.9517	81.7689	123.032	1.1351	60.4038	107.998	-8.68705	34.7524	101.881	-23.1436	17.7725	155.287	57.6325	-0.532643	153.207	58.6667	-29.6745	149.584	41.8938	-55.1983	179.747	58.3976	-9.34573	171.184	55.7645	-41.8751	159.968	28.695	-66.6662	194.451	48.8285	-10.4659	191.233	46.3984	-39.4653	178.437	27.7434	-60.7984	213.625	27.1554	2.07404	210.445	27.7975	-20.1311	196.402	28.9774	-42.4498	206.051	39.4993	48.8104	212.181	38.5481	77.6033	177.959	49.2931	67.3237	
39	0.325	142.259	22.879	82.7646	121.704	4.90984	56.823	110.25	-4.4065	34.4486	101.464	-19.0672	18.3622	153.79	57.5973	5.34024	153.896	62.191	-26.3796	149.601	46.7237	-54.0742	176.712	61.4278	-10.3058	172.887	55.4857	-44.6093	163.283	28.4627	-66.5575	198.335	48.9346	-11.2293	190.163	47.0519	-40.5072	179.037	27.4297	-61.8501	211	28.6026	2.19488	209.277	29.1518	-22.2639	197.455	29.185	-45.8247	209.062	39.7231	47.3341	216.072	36.0145	79.9121	176.973	50.3591	67.778	
40	0.333333	142.745	24.9712	80.7972	122.222	6.15524	60.9262	106.944	-3.00128	39.1683	99.4448	-14.7724	18.3277	155.022	59.2874	5.37053	158.246	60.8801	-26.2131	152.913	45.2181	-55.8179	181.718	59.3836	-8.27133	174.241	57.5404	-39.9931	164.293	31.2446	-66.2549	201.054	46.567	-6.37779	192.384	47.4812	-39.0003	184.743	29.8239	-61.0477	216.343	27.0299	1.67868	211.841	28.6033	-22.3044	201.652	29.8764	-45.0552	206.695	39.8968	47.8808	215.782	37.934	79.9872	180.086	47.1779	68.1261	
41	0.341667	144.812	25.3984	81.9606	119.94	8.028	65.712	106.38	0.565679	39.8883	94.4697	-12.8903	19.4093	154.327	60.0385	5.37767	157.733	62.0113	-26.4579	153.113	49.6493	-52.1853	179.532	61.2284	-10.0256	177.368	56.4092	-42.0655	167.427	30.0001	-66.7969	200.713	48.3888	-8.58234	193.493	49.6077	-36.4508	184.904	28.2786	-62.418	216.999	26.1208	4.5428	208.366	29.4451	-22.1513	203.093	30.5313	-43.2946	208.738	40.1739	50.2427	214.355	35.9705	77.4588	176.728	48.1235	70.0629	
42	0.35	145.129	25.7302	81.5022	120.419	8.87375	66.9901	101.701	1.28926	43.1796	89.0854	-11.479	22.8527	158.285	57.9477	2.51007	159.946	60.0565	-24.4169	155.896	47.7827	-51.6755	182.439	59.0177	-9.84316	179.153	56.9244	-39.4706	167.762	32.8229	-66.3868	197.335	46.9072	-5.3864	193.988	48.0038	-38.0076	183.999	33.0266	-59.183	217.154	24.9573	4.33734	213.134	28.9083	-18.2235	202.361	31.1729	-43.8185	207.671	38.7504	50.4348	215.082	35.5078	77.5274	176.184	47.5401	66.7394	
43	0.358333	142.195	25.1785	84.1966	120.444	8.98244	67.7098	101.957	1.28259	48.1654	88.8295	-10.1169	31.0111	158.133	54.0091	7.34764	156.689	60.0604	-27.8714	154.496	47.8102	-51.4933	180.001	54.7203	-4.70734	174.112	56.3675	-39.8886	165.835	34.2556	-64.807	198.425	44.864	-3.32383	192.205	45.5534	-38.8437	187.205	28.9423	-60.106	216.175	23.9206	3.36504	209.139	26.8015	-17.9036	201.667	28.4961	-42.4016	206.378	36.4756	50.9139	214.157	35.2351	78.4862	179.891	44.3126	69.9913	
44	0.366667	144.921	23.279	81.0879	120.452	8.1603	70.4977	100.824	0.112975	52.2006	84.7738	-11.7287	35.2176	156.083	55.0801	3.67908	156.038	57.7493	-23.9985	156.578	42.6707	-52.9035	178.21	53.7231	-7.17679	176.324	51.7431	-41.0666	164.736	29.6135	-65.8245	197.618	42.1515	-7.50722	191.137	42.4263	-39.4933	184.821	25.0195	-60.0708	210.584	20.1271	5.18675	208.955	22.4471	-20.0007	197.019	25.574	-41.2566	206.552	36.1523	46.6922	214.632	30.4905	81.4199	177.434	43.279	71.0405	
45	0.375	144.264	21.3273	82.6744	116.937	6.18105	70.0539	95.6168	-1.14829	54.2512	79.2947	-14.5389	37.32	157.053	48.6089	7.43872	154.188	53.2307	-24.3861	151.874	39.2291	-53.9912	176.8	50.3123	-6.10081	172.942	50.1244	-38.3032	164.112	24.4769	-65.3754	195.194	36.3848	-3.15493	190.166	36.858	-38.9882	181.778	20.5178	-60.891	212.876	16.3402	2.74904	206.645	18.1525	-15.7399	201.383	20.3553	-43.5338	203.509	31.0498	49.2054	217.257	28.6839	81.3537	174.316	42.4335	68.6735	
46	0.383333	140.861	19.672	84.0871	117.814	3.80791	71.1842	94.0607	-5.46565	53.1808	82.9564	-18.0143	40.8504	153.165	45.828	5.52966	157.114	47.1616	-25.5811	153.627	32.1074	-55.5268	178.363	44.5798	-6.51836	173.018	43.6821	-41.0404	164.005	18.8673	-64.9952	195.095	32.3031	-3.59083	189.81	31.7743	-39.0113	180.518	14.102	-60.784	213.879	11.8324	1.82113	208.158	11.9393	-22.2663	195.97	14.6594	-41.7223	207.202	25.795	44.1453	216.009	26.5415	76.5334	178.466	38.4287	67.6342	
47	0.391667	145.592	17.1351	85.7723	115.08	1.35704	73.0646	95.0483	-7.63573	57.1634	83.9326	-20.9432	38.4911	152.424	41.9552	6.53647	158.697	42.5018	-26.8255	151.422	31.5575	-52.2435	180.817	40.2534	-8.7624	173.242	37.3785	-43.8371	160.7	13.5253	-66.8883	196.722	27.7767	-3.71389	192.711	25.7813	-40.5452	181.422	9.97241	-59.2377	211.706	7.39336	3.79514	204.15	9.51124	-17.7714	195.041	11.7781	-40.748	208.36	23.9022	48.0056	214.123	24.0674	81.3222	178.138	35.5925	71.4282	
48	0.4	142.659	15.9769	86.7955	115.233	-0.00258507	75.5933	95.1399	-9.58635	55.2394	83.0865	-22.7303	42.7004	155.937	40.0435	1.64747	154.448	41.7709	-23.5632	154.708	26.8939	-50.3427	180.886	36.6874	-8.72736	173.144	34.7692	-40.9739	161.577	10.3906	-65.6252	194.829	26.1474	-4.32654	192.445	24.297	-35.7008	181.195	2.43463	-61.2707	211.933	3.00395	6.54109	209.457	4.64883	-18.2259	195.35	7.20395	-39.3939	207.768	19.9451	50.3179	215.8	22.0551	78.8352	177.819	34.3371	70.6855	
49	0.408333	144.82	15.4245	85.0339	114.935	0.34381	70.4613	96.4861	-8.97019	57.9905	82.672	-21.9756	39.9482	156.694	35.7762	5.47983	156.935	35.815	-28.2255	153.527	21.9887	-53.7465	177.908	34.5034	-3.90768	176.848	29.0088	-42.8114	164.055	8.1967	-63.4169	198.909	21.5347	-5.23995	190.998	21.8747	-34.9438	180.937	1.30949	-59.8266	209.526	0.680687	9.16398	208.69	0.204665	-16.6068	196.956	4.30119	-37.6221	207.53	18.4318	48.7883	212.952	18.7792	80.031	179.726	33.7776	71.3871	
